<svg width="24" height="24" viewBox="0 0 24 24" fill="none" xmlns="http://www.w3.org/2000/svg">
<mask id="mask0_309_3206" style="mask-type:luminance" maskUnits="userSpaceOnUse" x="0" y="0" width="24" height="24">
<path d="M24 0H0V24H24V0Z" fill="white"/>
</mask>
<g mask="url(#mask0_309_3206)">
<path d="M17.9997 11.5996V9.29957C18.0259 7.70121 17.4322 6.1548 16.343 4.98471C15.2538 3.81462 13.7538 3.11176 12.1577 3.02357C11.3566 3.00246 10.5593 3.14206 9.81306 3.43413C9.06677 3.72619 8.38655 4.1648 7.81256 4.72407C7.23856 5.28334 6.78243 5.95193 6.47107 6.69037C6.1597 7.42882 5.99943 8.22216 5.99971 9.02357V11.5996C5.99971 14.4276 3.42871 15.1136 3.42871 16.7416C3.42871 18.1996 6.77071 19.3096 11.9997 19.3096C17.2287 19.3096 20.5707 18.1956 20.5707 16.7376C20.5707 15.1096 17.9997 14.4236 17.9997 11.5996Z" stroke="#6E737A" stroke-width="2" stroke-miterlimit="10" stroke-linecap="square"/>
<path d="M12 21.2276C11.1667 21.2276 10.3333 21.1986 9.5 21.1406C9.66581 21.674 9.99788 22.1404 10.4477 22.4716C10.8975 22.8028 11.4414 22.9815 12 22.9815C12.5586 22.9815 13.1025 22.8028 13.5523 22.4716C14.0021 22.1404 14.3342 21.674 14.5 21.1406C13.7167 21.1973 12.8833 21.2263 12 21.2276Z" fill="#6E737A"/>
</g>
</svg>
