<svg width="16" height="16" viewBox="0 0 16 16" fill="none" xmlns="http://www.w3.org/2000/svg">
<path d="M14 12H2C1.46957 12 0.960858 11.7893 0.585785 11.4142C0.210712 11.0391 0 10.5304 0 10V2C0 1.46957 0.210712 0.96086 0.585785 0.585787C0.960858 0.210714 1.46957 0 2 0H14C14.5304 0 15.0391 0.210714 15.4142 0.585787C15.7893 0.96086 16 1.46957 16 2V10C16 10.5304 15.7893 11.0391 15.4142 11.4142C15.0391 11.7893 14.5304 12 14 12ZM2 2V10H14V2H2Z" fill="#7A8188"/>
<path d="M15 16H6C5.73478 16 5.48043 15.8946 5.29289 15.7071C5.10536 15.5196 5 15.2652 5 15C5 14.7348 5.10536 14.4804 5.29289 14.2929C5.48043 14.1054 5.73478 14 6 14H15C15.2652 14 15.5196 14.1054 15.7071 14.2929C15.8946 14.4804 16 14.7348 16 15C16 15.2652 15.8946 15.5196 15.7071 15.7071C15.5196 15.8946 15.2652 16 15 16Z" fill="#7A8188"/>
</svg>
