<svg width="350" height="280" viewBox="0 0 350 280" fill="none" xmlns="http://www.w3.org/2000/svg">
<path d="M51.6828 101.171C51.9708 105.783 59.7688 130.052 36.6648 160.088C13.9768 189.582 4.65582 212.388 42.7928 229.694C43.3118 229.93 44.0238 230.244 44.7518 230.556C85.0428 251.956 283.471 245.665 318.978 230.556C354.485 215.447 315.072 173.985 304.678 150.881C294.284 127.777 324.317 113.881 338.178 87.3092C352.039 60.7372 333.557 29.5482 304.678 29.5482C275.799 29.5482 233.055 63.0482 191.467 52.6482C149.879 42.2482 78.2558 1.81917 47.0668 29.5482C15.8778 57.2772 50.5278 82.6882 51.6828 101.171Z" fill="#EFF4FC"/>
<path d="M92.9448 163.366C92.9448 163.366 95.4918 160.251 98.3198 161.385C101.148 162.519 100.866 165.629 107.656 168.175C114.446 170.721 114.729 162.8 114.729 162.8C114.729 162.8 119.819 162.234 120.103 170.438C120.387 178.642 118.689 180.906 120.387 185.998H99.1648L96.8998 169.024L92.9448 163.366Z" fill="#FFE0B4"/>
<path d="M122.096 175.032C127.101 175.032 131.158 170.975 131.158 165.97C131.158 160.965 127.101 156.908 122.096 156.908C117.091 156.908 113.034 160.965 113.034 165.97C113.034 170.975 117.091 175.032 122.096 175.032Z" stroke="black" stroke-linecap="round" stroke-linejoin="round"/>
<path d="M324.597 157.309C329.369 157.309 333.237 153.441 333.237 148.669C333.237 143.898 329.369 140.029 324.597 140.029C319.825 140.029 315.957 143.898 315.957 148.669C315.957 153.441 319.825 157.309 324.597 157.309Z" fill="#EFF4FC"/>
<path d="M297.268 207.816C297.268 207.816 304.408 215.042 311.957 210.516C319.506 205.99 316.488 195.416 316.488 195.416C316.488 195.416 321.774 202.216 327.06 199.192C332.346 196.168 330.836 190.13 330.836 190.13C330.836 190.13 342.736 179.939 336.122 170.495C330.836 162.944 319.508 169.74 319.508 169.74C316.961 168.422 314.003 168.142 311.255 168.96C308.41 169.817 305.954 171.641 304.311 174.116C302.669 176.592 301.944 179.564 302.261 182.518C302.378 183.562 302.59 184.594 302.895 185.599C302.895 185.599 286.354 186.999 297.268 207.816Z" fill="#E4EDF9"/>
<path d="M293.833 219.573C293.833 219.573 299.119 190.122 317.243 185.594" stroke="#DAE6F2" stroke-linecap="round" stroke-linejoin="round"/>
<path d="M16.368 158.361C15.9864 159.965 15.9557 161.632 16.278 163.248C16.919 166.725 17.328 173.523 11.517 175.906C0.568006 180.396 8.08601 190.986 10.657 197.412C17.539 214.612 -8.65099 221.384 3.05701 234.753C7.03701 239.299 14.075 241.999 21.557 241.999H21.94C35.46 241.999 44.661 231.717 38.402 223.117C38.0775 222.672 37.7227 222.249 37.34 221.853C30.301 214.558 35.776 208.945 41.25 201.653C46.724 194.361 32.2 187.699 33.025 181.93C37.093 153.433 20.36 142.661 16.368 158.361Z" fill="#E4EDF9"/>
<path d="M22.9922 186.934C22.9922 186.934 28.7462 197.802 22.3532 216.342C17.8532 229.388 19.1532 236.16 22.9922 248.306" stroke="#EFF5FE" stroke-linecap="round" stroke-linejoin="round"/>
<path d="M90.0002 101V209.619C89.9503 213.648 91.5025 217.531 94.3154 220.415C97.1283 223.3 100.972 224.949 105 225H265C269.029 224.949 272.872 223.3 275.685 220.415C278.498 217.531 280.05 213.648 280 209.619V101H90.0002Z" fill="white"/>
<path d="M159.282 156H135.716C134.215 156 132.999 157.216 132.999 158.717V170.283C132.999 171.784 134.215 173 135.716 173H159.282C160.783 173 161.999 171.784 161.999 170.283V158.717C161.999 157.216 160.783 156 159.282 156Z" fill="#E4EDF9"/>
<path d="M159.282 184H135.716C134.215 184 132.999 185.216 132.999 186.717V198.283C132.999 199.784 134.215 201 135.716 201H159.282C160.783 201 161.999 199.784 161.999 198.283V186.717C161.999 185.216 160.783 184 159.282 184Z" fill="#E4EDF9"/>
<path d="M202.282 156H178.716C177.215 156 175.999 157.216 175.999 158.717V170.283C175.999 171.784 177.215 173 178.716 173H202.282C203.783 173 204.999 171.784 204.999 170.283V158.717C204.999 157.216 203.783 156 202.282 156Z" fill="#E4EDF9"/>
<path d="M202.282 127H178.716C177.215 127 175.999 128.216 175.999 129.717V141.283C175.999 142.784 177.215 144 178.716 144H202.282C203.783 144 204.999 142.784 204.999 141.283V129.717C204.999 128.216 203.783 127 202.282 127Z" fill="#E4EDF9"/>
<path d="M202.282 184H178.716C177.215 184 175.999 185.216 175.999 186.717V198.283C175.999 199.784 177.215 201 178.716 201H202.282C203.783 201 204.999 199.784 204.999 198.283V186.717C204.999 185.216 203.783 184 202.282 184Z" fill="#E4EDF9"/>
<path d="M245.282 127H221.716C220.215 127 218.999 128.216 218.999 129.717V141.283C218.999 142.784 220.215 144 221.716 144H245.282C246.783 144 247.999 142.784 247.999 141.283V129.717C247.999 128.216 246.783 127 245.282 127Z" fill="#E4EDF9"/>
<path d="M245.282 156H221.716C220.215 156 218.999 157.216 218.999 158.717V170.283C218.999 171.784 220.215 173 221.716 173H245.282C246.783 173 247.999 171.784 247.999 170.283V158.717C247.999 157.216 246.783 156 245.282 156Z" fill="#E4EDF9"/>
<path d="M245.282 184H221.716C220.215 184 218.999 185.216 218.999 186.717V198.283C218.999 199.784 220.215 201 221.716 201H245.282C246.783 201 247.999 199.784 247.999 198.283V186.717C247.999 185.216 246.783 184 245.282 184Z" fill="#E4EDF9"/>
<path d="M264.977 77H105.02C101.036 77.0003 97.216 78.5829 94.3992 81.3999C91.5824 84.2169 90 88.0374 90 92.021V104H280V92.02C280 90.0473 279.611 88.094 278.856 86.2716C278.101 84.4491 276.994 82.7932 275.599 81.3985C274.204 80.0037 272.548 78.8974 270.726 78.1427C268.903 77.388 266.95 76.9997 264.977 77Z" fill="#59A3F9"/>
<path d="M132.135 91.3175C134.035 91.3175 135.576 89.777 135.576 87.8765C135.576 85.9761 134.035 84.4355 132.135 84.4355C130.234 84.4355 128.694 85.9761 128.694 87.8765C128.694 89.777 130.234 91.3175 132.135 91.3175Z" fill="white"/>
<path d="M238.801 91.3175C240.701 91.3175 242.242 89.777 242.242 87.8765C242.242 85.9761 240.701 84.4355 238.801 84.4355C236.9 84.4355 235.36 85.9761 235.36 87.8765C235.36 89.777 236.9 91.3175 238.801 91.3175Z" fill="white"/>
<path d="M114 184.998L126.5 176.998C126.5 176.998 133 184.998 129.5 187.998C129.5 187.998 124 193.998 114 184.998Z" fill="#F69985"/>
<path d="M111.411 147.387C111.411 147.387 115.265 150.101 114.142 150.854C113.381 151.308 112.484 151.476 111.61 151.329L111.411 147.387Z" fill="#DC7D70"/>
<path d="M96.811 167.07C99.466 165.808 98.742 146.519 99 143.998L105 140.846L110.425 141.687C110.425 141.687 114.506 149.951 112.525 154.751C112.362 155.128 112.09 155.447 111.745 155.669C111.399 155.891 110.996 156.006 110.585 155.998L109.356 155.987C109.356 155.987 108.408 157.056 108.996 159.998C109.727 163.146 111.487 165.961 113.996 167.998L96.811 167.07Z" fill="#F69985"/>
<path d="M131 149.999C133 146.999 133.009 144.452 135 142.999C135.585 142.572 135.139 146.261 136 145.999C140 144.999 137.149 146.808 137 146.999C136.174 147.826 133.957 149.266 133.752 150.416C133.416 151.155 133.031 151.871 132.6 152.559C130.067 156.336 117.644 182.995 116.334 182.939C114.886 182.878 99.8901 179.629 101 179.999C104 180.999 118 164.999 131 149.999Z" fill="#F69985"/>
<path d="M105.5 240.998L110.5 268.998H114.5C114.5 268.998 116 209.498 114 202.498L104.5 237.998L105.5 240.998Z" fill="#3E5B7D"/>
<path d="M94 198.998C93.503 203.758 94.1901 208.567 96 212.998C99 219.998 99 216.998 99 220.998C99 224.998 96 232.998 95 236.998C94 240.998 93 258.998 93 268.998H99C99 268.998 103 252.998 107 243.998C110.115 237.366 112.141 230.275 113 222.998C114 214.998 115 198.998 115 198.998H94Z" fill="#557192"/>
<path d="M97 162.998H110C110 162.998 115 163.498 120 169.498C125 175.498 127 177.498 127 177.498L116 183.998L120 203.398L111 201.998L97 162.998Z" fill="#FFE7C3"/>
<path d="M93.3879 279.999C111.203 279.999 125.646 278.705 125.646 277.109C125.646 275.513 111.203 274.219 93.3879 274.219C75.5723 274.219 61.1299 275.513 61.1299 277.109C61.1299 278.705 75.5723 279.999 93.3879 279.999Z" fill="#EFF4FC"/>
<path d="M93.271 274.635C93.3918 274.223 93.5571 273.826 93.764 273.449C94.1474 273.642 94.5699 273.745 94.999 273.749V273.742C95.986 271.371 97.465 271.964 97.465 271.964C98.6059 273.084 100.075 273.809 101.657 274.035C103.807 274.462 104.134 275.835 104.157 276.552C104.159 276.61 104.149 276.666 104.129 276.72C104.108 276.773 104.077 276.822 104.038 276.864C103.999 276.905 103.952 276.938 103.9 276.962C103.847 276.985 103.791 276.998 103.734 276.999H93.77C93.77 276.999 92.776 277.01 93.271 274.635Z" fill="#557192"/>
<path d="M110.271 274.635C110.392 274.223 110.557 273.826 110.764 273.449C111.147 273.642 111.57 273.745 111.999 273.749V273.742C112.986 271.371 114.465 271.964 114.465 271.964C115.606 273.084 117.075 273.809 118.657 274.035C120.807 274.462 121.134 275.835 121.157 276.552C121.159 276.61 121.149 276.666 121.129 276.72C121.108 276.773 121.077 276.822 121.038 276.864C120.999 276.905 120.952 276.938 120.9 276.962C120.847 276.985 120.791 276.998 120.734 276.999H110.77C110.77 276.999 109.776 277.01 110.271 274.635Z" fill="#3E5B7D"/>
<path d="M119.934 203.332C119.934 203.332 115 202.998 111 202.998C104 202.998 90 204.998 90 204.998C90 198.998 93.5 196.288 94 192.998C96.007 179.887 90 175.998 99.84 163.751C99.84 163.751 108.056 164.125 110 162.998C110.599 163.569 111.227 164.107 111.883 164.611C118.619 170.744 121.161 174.536 116 183.998C114.684 186.409 119.357 202.042 119.934 203.332Z" fill="#FFE7C3"/>
<path d="M103.887 136.817C98.533 137.256 98.007 141.517 95.164 148.658C90 158.999 83 154.999 78 160.999C76 163.999 77.317 169.743 71 171.999C57 176.999 58.779 192.293 68 198.999C79 206.999 87.494 201.466 89 190.999C89.471 187.727 90 180.999 94 177.999C101.417 172.436 106.5 167.014 106 159.999C105.5 149.014 103 148.999 105 146.999C105.123 146.834 108.844 144.134 109 143.999C111.185 142.12 113.788 136.725 111 135.999C110.147 135.773 108 136.999 103.887 136.817Z" fill="#395372"/>
<path d="M134 148.998H136C136 148.998 137 148.998 136 149.998C135.048 150.95 131 151.998 131 151.998L134 148.998Z" fill="#F39480"/>
<path d="M107.3 148.057C107.299 148.418 107.209 148.772 107.037 149.089C106.864 149.406 106.616 149.674 106.313 149.87C106.011 150.066 105.664 150.184 105.305 150.212C104.945 150.241 104.584 150.179 104.255 150.032C103.875 149.865 103.553 149.589 103.33 149.24C103.106 148.89 102.992 148.482 103 148.067V148.057C103 146.87 103.86 145.047 105.58 146.767C106.672 147.864 107.3 146.87 107.3 148.057Z" fill="#F39480"/>
<path d="M159.282 132H135.716C134.215 132 132.999 133.216 132.999 134.717V146.283C132.999 147.784 134.215 149 135.716 149H159.282C160.783 149 161.999 147.784 161.999 146.283V134.717C161.999 133.216 160.783 132 159.282 132Z" fill="#2680E9"/>
<path d="M152.7 137.395L146.274 143.822L142.548 140.095" stroke="white" stroke-width="2" stroke-linecap="round" stroke-linejoin="round"/>
<path d="M280.5 256C280.5 256 279.458 224.815 307.85 227.142C307.85 227.142 306.919 235.52 300.868 235.52C294.817 235.52 296.214 238.313 294.352 241.105C292.49 243.897 291.094 245.497 287.836 246.094C284.578 246.691 282.919 250.88 283.05 256H280.5Z" fill="#E4EDF9"/>
<path d="M280.525 256C280.525 256 284.925 221.557 254.673 215.971C254.673 215.971 247.533 221 254.673 227.614C261.813 234.228 266.309 230.4 266.309 234.59C266.309 238.78 265.268 242.69 271.319 245.483C277.37 248.276 278.279 256 278.279 256H280.525Z" fill="#E4EDF9"/>
<path d="M266.992 199.835L267.018 199.864C273.604 207.946 277.585 217.835 278.437 228.226C279.37 245.006 280.767 255.726 280.77 255.744L282.291 255.544C282.291 255.544 282.27 255.381 282.23 255.057C281.952 252.792 280.783 242.779 279.97 228.139C279.458 220.752 277.32 213.568 273.71 207.102C272.141 204.158 270.276 201.381 268.142 198.816L266.992 199.835Z" fill="#E4EDF9"/>
<path d="M266.367 201.132C268.061 201.132 269.435 199.759 269.435 198.064C269.435 196.37 268.061 194.996 266.367 194.996C264.672 194.996 263.299 196.37 263.299 198.064C263.299 199.759 264.672 201.132 266.367 201.132Z" fill="#EFF4FC"/>
</svg>
