<svg width="16" height="16" viewBox="0 0 16 16" fill="none" xmlns="http://www.w3.org/2000/svg">
<path d="M2.8 5.99979H8.2C8.6368 5.9638 9.07026 6.10086 9.40695 6.38144C9.74365 6.66202 9.95663 7.06366 10 7.49979V13.4998C9.95663 13.9359 9.74365 14.3376 9.40695 14.6181C9.07026 14.8987 8.6368 15.0358 8.2 14.9998H2.8C2.3632 15.0358 1.92974 14.8987 1.59305 14.6181C1.25635 14.3376 1.04337 13.9359 1 13.4998V7.49979C1.04337 7.06366 1.25635 6.66202 1.59305 6.38144C1.92974 6.10086 2.3632 5.9638 2.8 5.99979Z" stroke="#7A8188" stroke-width="2" stroke-linecap="round" stroke-linejoin="round"/>
<path d="M6 2.99907V2.42707C6.00969 2.03884 6.17314 1.67035 6.45441 1.40258C6.73569 1.1348 7.11176 0.989673 7.5 0.999072H13.457C13.8508 0.98446 14.2343 1.12656 14.5236 1.39423C14.8128 1.6619 14.9841 2.0333 15 2.42707V9.61006C14.9846 9.99295 14.8181 10.3541 14.537 10.6145C14.2558 10.8748 13.8829 11.0131 13.5 10.9991H13" stroke="#7A8188" stroke-width="2" stroke-linecap="round" stroke-linejoin="round"/>
</svg>
