<svg width="32" height="32" viewBox="0 0 32 32" fill="none" xmlns="http://www.w3.org/2000/svg">
<path d="M32 2.667V29.333C31.9979 30.0397 31.7162 30.7168 31.2165 31.2165C30.7168 31.7162 30.0397 31.9979 29.333 32H18.667V20H22.374L22.961 16H18.667V12.813C18.667 12.813 18.814 10.6 20.707 10.666H24V6.52C24 6.52 20.773 6.333 19.6 6.333C16.12 6.333 13.733 8.466 13.333 12.373V16H9.333V20H13.333V32H2.667C1.96032 31.9979 1.28318 31.7162 0.783477 31.2165C0.283775 30.7168 0.0021103 30.0397 0 29.333L0 2.667C0.0021103 1.96032 0.283775 1.28318 0.783477 0.783477C1.28318 0.283775 1.96032 0.0021103 2.667 0L29.333 0C30.0397 0.0021103 30.7168 0.283775 31.2165 0.783477C31.7162 1.28318 31.9979 1.96032 32 2.667Z" fill="#3C93FB"/>
</svg>
