<svg width="16" height="18" viewBox="0 0 16 18" fill="none" xmlns="http://www.w3.org/2000/svg">
<path d="M8 16.0143C8.95808 15.1171 9.71855 14.0299 10.2329 12.8222C10.7472 11.6145 11.004 10.3129 10.987 9.00033C11.004 7.6878 10.7472 6.38615 10.2329 5.17846C9.71855 3.97078 8.95808 2.8836 8 1.98633" stroke="#7A8188" stroke-width="2" stroke-linecap="round" stroke-linejoin="round"/>
<path d="M7.98682 16.0143C7.02874 15.1171 6.26827 14.0299 5.75396 12.8222C5.23965 11.6145 4.9828 10.3129 4.99982 9.00033C4.9828 7.6878 5.23965 6.38615 5.75396 5.17846C6.26827 3.97078 7.02874 2.8836 7.98682 1.98633" stroke="#7A8188" stroke-width="2" stroke-linecap="round" stroke-linejoin="round"/>
<path d="M8 16C11.866 16 15 12.866 15 9C15 5.13401 11.866 2 8 2C4.13401 2 1 5.13401 1 9C1 12.866 4.13401 16 8 16Z" stroke="#7A8188" stroke-width="2" stroke-linecap="round" stroke-linejoin="round"/>
<path d="M1 9H15" stroke="#7A8188" stroke-width="2" stroke-linecap="round" stroke-linejoin="round"/>
</svg>
