<svg width="32" height="32" viewBox="0 0 32 32" fill="none" xmlns="http://www.w3.org/2000/svg">
<path d="M15.9831 31.9993H2.48314C2.15305 32.024 1.82151 31.9775 1.51097 31.8629C1.20042 31.7484 0.918125 31.5684 0.683148 31.3353C0.448167 31.1021 0.266003 30.8212 0.149029 30.5115C0.0320555 30.2018 -0.0170375 29.8706 0.00510835 29.5403V2.45731C-0.0190162 2.12642 0.0287832 1.79423 0.145123 1.48353C0.261463 1.17283 0.4436 0.890976 0.67912 0.657309C0.914023 0.424303 1.19642 0.244722 1.50706 0.13082C1.8177 0.0169183 2.14926 -0.0286219 2.47911 -0.00269067H29.4791C29.8043 -0.0206696 30.1297 0.0282753 30.4352 0.141112C30.7406 0.253949 31.0197 0.428275 31.2551 0.653308C31.4906 0.8782 31.6774 1.14901 31.804 1.44899C31.9306 1.74897 31.9943 2.07173 31.9911 2.39731C31.9911 2.50431 31.9911 2.61231 31.9911 2.71931V29.2673C32.0592 29.8401 31.9233 30.4186 31.6073 30.9012C31.2913 31.3838 30.8154 31.7397 30.2632 31.9063C30.0057 31.9712 29.7404 31.9994 29.4751 31.9903C24.9805 31.999 20.4831 32.002 15.9831 31.9993ZM17.0762 14.1243L16.8851 14.0873C16.8851 13.5873 16.8691 13.0763 16.8851 12.5723C16.9011 12.2103 16.7852 12.0613 16.4042 12.0723C15.2842 12.093 14.1635 12.093 13.0422 12.0723C12.6592 12.0663 12.5581 12.2093 12.5581 12.5723C12.5675 17.247 12.5675 21.922 12.5581 26.5973C12.5581 27.0453 12.7332 27.1403 13.1252 27.1343C14.2462 27.1183 15.3671 27.1053 16.4891 27.1343C16.9971 27.1503 17.1121 26.9593 17.1081 26.4843C17.0871 24.1113 17.0731 21.7363 17.1081 19.3643C17.1209 18.6715 17.2347 17.9842 17.4461 17.3243C17.8461 16.1133 18.9011 15.6093 20.4891 15.7463C20.9828 15.7994 21.4423 16.0239 21.7876 16.3807C22.1329 16.7376 22.3422 17.2041 22.3791 17.6993C22.4991 18.4727 22.5629 19.2537 22.5701 20.0363C22.5941 22.1963 22.5891 24.3543 22.5701 26.5143C22.5701 26.9733 22.6941 27.1463 23.1701 27.1353C24.2915 27.1053 25.4128 27.1053 26.5342 27.1353C27.0202 27.1493 27.1262 26.9683 27.1231 26.5123C27.1042 23.7993 27.1531 21.0873 27.0931 18.3763C27.0678 17.2914 26.923 16.2125 26.6611 15.1593C26.5004 14.3472 26.0977 13.6027 25.5058 13.0238C24.9139 12.445 24.1607 12.0589 23.3451 11.9163C22.5954 11.7737 21.8314 11.7207 21.0691 11.7583C20.3359 11.7742 19.6168 11.9638 18.9711 12.3114C18.3253 12.6591 17.7711 13.155 17.3541 13.7583C17.2681 13.8843 17.1702 14.0033 17.0762 14.1243ZM9.41111 19.6403C9.41111 17.3033 9.40516 14.9673 9.41716 12.6283C9.41716 12.2283 9.33111 12.0553 8.88511 12.0663C7.71111 12.0963 6.53616 12.0883 5.36216 12.0663C4.98616 12.0603 4.87313 12.1933 4.87413 12.5663C4.88213 17.259 4.88213 21.9513 4.87413 26.6433C4.87413 27.0283 5.02213 27.1353 5.37913 27.1303C6.53513 27.1173 7.69213 27.1093 8.84813 27.1303C9.29713 27.1403 9.42113 26.9773 9.41813 26.5423C9.40213 24.2423 9.41111 21.9423 9.41111 19.6423V19.6403ZM7.18815 4.55131C6.83623 4.54369 6.4863 4.60596 6.15861 4.73453C5.83093 4.8631 5.532 5.05541 5.27916 5.30031C5.02624 5.54516 4.82438 5.83775 4.68535 6.16115C4.54631 6.48454 4.47285 6.83231 4.46916 7.18431C4.48873 7.88505 4.77532 8.55182 5.27037 9.04817C5.76541 9.54451 6.43143 9.8329 7.13212 9.85431C7.84308 9.8409 8.52105 9.55183 9.02293 9.04808C9.52481 8.54434 9.81136 7.86532 9.82212 7.15431C9.80783 6.46336 9.52466 5.80521 9.03282 5.31971C8.54097 4.83421 7.87923 4.55963 7.18815 4.55431V4.55131Z" fill="#007BB6"/>
</svg>
