<svg width="20" height="20" viewBox="0 0 20 20" fill="none" xmlns="http://www.w3.org/2000/svg">
<path d="M4.75 3H12.625L17 7.375V15.25C16.9997 15.714 16.8153 16.159 16.4871 16.4871C16.159 16.8153 15.714 16.9997 15.25 17H4.75C4.28595 16.9997 3.84099 16.8153 3.51286 16.4871C3.18472 16.159 3.00026 15.714 3 15.25V4.75C3.00026 4.28595 3.18472 3.84099 3.51286 3.51286C3.84099 3.18472 4.28595 3.00026 4.75 3Z" stroke="#7A8188" stroke-width="2" stroke-linecap="round" stroke-linejoin="round"/>
<path d="M12 14C11.7348 14 11.4804 13.8946 11.2929 13.7071C11.1054 13.5196 11 13.2652 11 13V10C11 9.73478 11.1054 9.48043 11.2929 9.29289C11.4804 9.10536 11.7348 9 12 9C12.2652 9 12.5196 9.10536 12.7071 9.29289C12.8946 9.48043 13 9.73478 13 10V13C13 13.2652 12.8946 13.5196 12.7071 13.7071C12.5196 13.8946 12.2652 14 12 14Z" fill="#7A8188"/>
<path d="M8 14C7.73478 14 7.48043 13.8946 7.29289 13.7071C7.10536 13.5196 7 13.2652 7 13V7C7 6.73478 7.10536 6.48043 7.29289 6.29289C7.48043 6.10536 7.73478 6 8 6C8.26522 6 8.51957 6.10536 8.70711 6.29289C8.89464 6.48043 9 6.73478 9 7V13C9 13.2652 8.89464 13.5196 8.70711 13.7071C8.51957 13.8946 8.26522 14 8 14Z" fill="#7A8188"/>
</svg>
