<svg width="52" height="52" viewBox="0 0 52 52" fill="none" xmlns="http://www.w3.org/2000/svg">
<path d="M0 26C0 5.2 5.2 0 26 0C46.8 0 52 5.2 52 26C52 46.8 46.8 52 26 52C5.2 52 0 46.8 0 26Z" fill="url(#paint0_linear_309_4344)"/>
<path d="M26.0004 11.0508C28.7351 11.0508 31.4173 11.8009 33.7553 13.2194C36.0933 14.6379 37.9975 16.6704 39.2606 19.0959C40.5238 21.5213 41.0975 24.2467 40.9194 26.9756C40.7413 29.7044 39.8181 32.3321 38.2505 34.5728L40.1895 36.5118L40.2824 36.6118C40.7284 37.1067 40.9675 37.7539 40.9502 38.4199C40.9329 39.0858 40.6606 39.7198 40.1895 40.1908C39.7184 40.6619 39.0845 40.9342 38.4185 40.9515C37.7526 40.9688 37.1053 40.7298 36.6104 40.2838L36.5105 40.1908L34.5725 38.2508C32.6486 39.5966 30.4348 40.4705 28.1104 40.8015C25.786 41.1325 23.4163 40.9114 21.1932 40.156C18.9701 39.4007 16.9562 38.1324 15.3146 36.4538C13.673 34.7753 12.4498 32.7337 11.744 30.4944C11.0383 28.2551 10.87 25.881 11.2526 23.5645C11.6352 21.248 12.558 19.0542 13.9463 17.1608C15.3346 15.2674 17.1494 13.7275 19.2436 12.666C21.3378 11.6045 23.6526 11.0511 26.0004 11.0508ZM26.0004 14.9668C23.8184 14.9668 21.6853 15.6138 19.8709 16.8261C18.0566 18.0384 16.6425 19.7614 15.8074 21.7774C14.9723 23.7934 14.7537 26.0117 15.1794 28.1518C15.605 30.292 16.6557 32.2579 18.1986 33.8009C19.7415 35.344 21.7073 36.3948 23.8474 36.8207C25.9875 37.2465 28.2059 37.0281 30.2219 36.1932C32.2379 35.3583 33.9611 33.9444 35.1736 32.1301C36.386 30.3159 37.0333 28.1829 37.0334 26.0008C37.0334 23.0746 35.8711 20.2682 33.802 18.1989C31.733 16.1297 28.9267 14.967 26.0004 14.9668ZM27.3665 27.3008C28.5536 27.3228 29.7134 27.6618 30.7255 28.2828C30.9432 28.4164 31.1532 28.5623 31.3545 28.7198C31.6599 28.9712 31.9021 29.2907 32.0617 29.6526C32.2214 30.0146 32.2939 30.4089 32.2736 30.8039C32.2533 31.199 32.1406 31.5838 31.9447 31.9274C31.7488 32.2711 31.4751 32.564 31.1455 32.7828C30.7822 33.0404 30.4005 33.271 30.0035 33.4728C28.5721 34.1985 26.973 34.5291 25.3712 34.4305C23.7694 34.3319 22.223 33.8076 20.8914 32.9118C20.5579 32.702 20.2779 32.4173 20.0737 32.0804C19.8694 31.7435 19.7464 31.3636 19.7146 30.9709C19.6828 30.5782 19.7429 30.1834 19.8902 29.818C20.0376 29.4526 20.2681 29.1266 20.5634 28.8658C20.7918 28.6737 21.0327 28.497 21.2844 28.3368C22.3181 27.6799 23.5129 27.321 24.7374 27.2998L27.3665 27.3008ZM26.0004 17.5508C26.9028 17.5505 27.7773 17.863 28.475 18.4352C29.1726 19.0073 29.6504 19.8037 29.8267 20.6886C30.003 21.5735 29.8671 22.4922 29.442 23.2881C29.0169 24.084 28.329 24.7079 27.4955 25.0534C26.662 25.399 25.7344 25.4449 24.8709 25.1832C24.0074 24.9215 23.2613 24.3685 22.7598 23.6184C22.2583 22.8683 22.0324 21.9676 22.1206 21.0696C22.2088 20.1716 22.6056 19.332 23.2434 18.6938C23.9745 17.9623 24.9663 17.5512 26.0004 17.5508Z" fill="white"/>
<defs>
<linearGradient id="paint0_linear_309_4344" x1="26" y1="0" x2="26" y2="52" gradientUnits="userSpaceOnUse">
<stop stop-color="#3990FF"/>
<stop offset="1" stop-color="#2662FF"/>
</linearGradient>
</defs>
</svg>
