<svg width="48" height="48" viewBox="0 0 48 48" fill="none" xmlns="http://www.w3.org/2000/svg">
<path d="M20.3206 35.0387H35.0406L40.5606 40.5587V20.3187C40.5606 19.3427 40.1729 18.4067 39.4828 17.7165C38.7926 17.0264 37.8566 16.6387 36.8806 16.6387H20.3206C19.3446 16.6387 18.4086 17.0264 17.7185 17.7165C17.0283 18.4067 16.6406 19.3427 16.6406 20.3187V31.3587C16.6406 32.3347 17.0283 33.2707 17.7185 33.9608C18.4086 34.651 19.3446 35.0387 20.3206 35.0387Z" fill="#1565C0"/>
<path d="M28.6004 25.8395H12.9604L7.44043 31.3595V11.1195C7.44043 10.1435 7.82814 9.20743 8.51828 8.5173C9.20841 7.82717 10.1444 7.43945 11.1204 7.43945H28.6004C29.0837 7.43945 29.5622 7.53464 30.0087 7.71958C30.4552 7.90451 30.8609 8.17558 31.2026 8.5173C31.5443 8.85902 31.8154 9.2647 32.0003 9.71118C32.1852 10.1577 32.2804 10.6362 32.2804 11.1195V22.1595C32.2804 22.6427 32.1852 23.1213 32.0003 23.5677C31.8154 24.0142 31.5443 24.4199 31.2026 24.7616C30.8609 25.1033 30.4552 25.3744 30.0087 25.5593C29.5622 25.7443 29.0837 25.8395 28.6004 25.8395Z" fill="#2196F3"/>
</svg>
