	<svg xmlns="http://www.w3.org/2000/svg" width="138.778" height="56" viewBox="0 0 138.778 56">
  <g id="Group_934" data-name="Group 934" transform="translate(-606 -169)">
    <path id="Path_661" data-name="Path 661" d="M-387.256-207.6l-17.949-31.051-8.427,14.595-8.434-14.595-17.949,31.058c.149.011.211.02.271.02q5.111,0,10.222.009a.566.566,0,0,0,.552-.37q3.32-5.842,6.657-11.678c.073-.123.1-.295.281-.364l8.4,14.881,8.424-14.946.271.472q3.309,5.794,6.611,11.6a.63.63,0,0,0,.64.38c3.223-.014,6.444-.007,9.667-.007Zm15.2,4.912c.335-.044.674-.075,1.007-.136a59.224,59.224,0,0,0,7.274-1.9,120.227,120.227,0,0,0,18.479-7.311,31.281,31.281,0,0,0,5.785-3.621,8.311,8.311,0,0,0,1.916-2.113,1.9,1.9,0,0,0-.16-2.354,7.274,7.274,0,0,0-1.032-1.057,17.154,17.154,0,0,0-1.952-1.4c-1.973-1.239-4.057-2.267-6.127-3.329a36.649,36.649,0,0,1-3.528-1.918,2.525,2.525,0,0,1-.912-3.54,4.5,4.5,0,0,1,.853-1.144c.329-.324.666-.642,1-.963q6.08-5.822,12.16-11.646c.1-.1.324-.181.229-.348-.079-.138-.281-.047-.425-.015a12.239,12.239,0,0,0-1.761.552,155.043,155.043,0,0,0-17.151,7.977,62.839,62.839,0,0,0-7.114,4.294A5.715,5.715,0,0,0-365-231.22a2.43,2.43,0,0,0,.079,3.006,4.808,4.808,0,0,0,1.41,1.251c3.272,1.938,6.518,3.92,9.828,5.794a6.039,6.039,0,0,1,1.831,1.386,1.716,1.716,0,0,1,.142,2.178,6.224,6.224,0,0,1-.949,1.131,29.6,29.6,0,0,1-3.329,2.783c-5.163,3.808-10.612,7.179-16.125,10.45a3.494,3.494,0,0,0-.356.213c-.168.123-.136.232.052.287a2.393,2.393,0,0,0,.364.057Zm70.406-4.982-17.9-30.982-17.9,30.982h.523q4.925,0,9.85.009a.667.667,0,0,0,.677-.4q3.273-5.787,6.58-11.557c.08-.141.115-.324.3-.4.079.136.157.266.232.4q3.305,5.794,6.6,11.6a.6.6,0,0,0,.607.359c3.329-.014,6.657-.009,9.986-.009Zm-82.331-15.462q0,7.52-.009,15.032c0,.343.078.43.427.429q4.671-.023,9.343,0c.355,0,.428-.1.428-.435q-.014-14.985,0-29.972c0-.35-.09-.433-.434-.43q-4.648.021-9.3,0c-.4,0-.469.115-.467.486Q-383.967-230.575-383.977-223.129Zm-22.931,20.435h32.334c.779,0,.779,0,.779-.767,0-.616,0-.616-.6-.616h-64.756c-.851,0-.825,0-.863.832-.018.434.081.563.545.563Q-423.19-202.707-406.908-202.694Zm78.836-1.383h-25.62c-.8,0-.771,0-.81.789-.023.471.1.607.593.605q25.688-.022,51.377-.012c.84,0,.812,0,.849-.841.02-.438-.085-.555-.541-.554Q-315.148-204.066-328.072-204.078Zm21.993-25.59a4.548,4.548,0,0,0,4.538-4.527,4.571,4.571,0,0,0-4.562-4.562,4.562,4.562,0,0,0-4.537,4.537A4.544,4.544,0,0,0-309.305-231,4.544,4.544,0,0,0-306.079-229.668ZM-425.735-193.6c-.729-1.288-1.5-2.466-2.081-3.737a1.84,1.84,0,0,0-2.191-1.254c-.348.053-.42.123-.418.456.015,1.833.007,3.667.007,5.5,0,1.09,0,1.076,1.1,1.087.322,0,.412-.078.406-.406-.031-1.447-.035-2.9-.041-4.345,0-.123-.07-.266.084-.378.768,1.356,1.588,2.66,2.261,4.038a1.645,1.645,0,0,0,1.908,1.1c.37-.051.445-.137.441-.48-.015-1.849-.007-3.7-.007-5.548,0-1.013,0-.986-.995-1.023-.433-.015-.493.132-.493.521C-425.72-196.6-425.735-195.144-425.735-193.6Zm115.941,0c-.74-1.3-1.507-2.482-2.087-3.749a1.831,1.831,0,0,0-2.2-1.243c-.3.047-.414.083-.412.413.016,1.833.007,3.667.007,5.5,0,1.144,0,1.133,1.155,1.127.293,0,.356-.088.351-.37-.023-1.139-.025-2.28-.032-3.42v-1.314a.937.937,0,0,1,.292.351c.692,1.218,1.451,2.4,2.05,3.664a1.641,1.641,0,0,0,1.912,1.1c.38-.048.439-.152.436-.486-.014-1.864-.006-3.728-.006-5.592,0-.96,0-.939-.957-.969-.414-.012-.54.085-.53.524.036,1.466.015,2.922.015,4.473Zm-68.612-3.159c.811,1.43,1.629,2.733,2.3,4.107a1.656,1.656,0,0,0,1.945,1.118c.358-.055.409-.145.408-.46-.012-1.833-.006-3.667-.006-5.5,0-1.11,0-1.091-1.11-1.086-.327,0-.37.123-.37.406.031,1.34.043,2.68.062,4.02v.477a31.005,31.005,0,0,1-2.143-3.679,1.805,1.805,0,0,0-2.155-1.233c-.37.055-.439.153-.436.486.014,1.833.006,3.667.006,5.5,0,1.055,0,1.034,1.038,1.063.395.011.476-.1.471-.483C-378.419-193.564-378.405-195.1-378.405-196.757Zm45.06,0c.812,1.431,1.634,2.733,2.3,4.11a1.639,1.639,0,0,0,1.948,1.11c.3-.049.411-.083.408-.412-.017-1.849-.009-3.7-.009-5.548,0-1.087,0-1.075-1.073-1.082-.318,0-.422.075-.413.408.037,1.371.046,2.742.064,4.113v.381a30.728,30.728,0,0,1-2.144-3.683,1.8,1.8,0,0,0-2.156-1.233c-.321.052-.441.081-.438.438.02,1.864.009,3.728.009,5.593,0,1,0,.979.995,1.015.439.016.52-.123.514-.534C-333.361-193.6-333.346-195.12-333.346-196.757Zm-21.247,1.69v-2.4c0-1.143,0-1.132-1.135-1.11-.276,0-.334.1-.329.35.014.724-.007,1.449.011,2.172.006.266-.08.339-.339.334-.693-.016-1.387-.015-2.08,0-.247,0-.319-.076-.311-.317.016-.493,0-.986,0-1.479,0-1.061,0-1.045-1.048-1.06-.351,0-.436.1-.434.44.017,1.833.009,3.667.009,5.5,0,1.11,0,1.092,1.11,1.1.317,0,.38-.1.37-.393-.018-.74,0-1.479-.01-2.219,0-.229.051-.333.3-.328q1.063.021,2.125,0c.265,0,.3.123.3.335-.01.508,0,1.017,0,1.525,0,1.085,0,1.068,1.075,1.079.349,0,.4-.123.391-.427C-354.6-193-354.593-194.034-354.593-195.067Zm-28.679-.647c-.571,0-1.142-.01-1.711,0-.247.006-.318-.062-.295-.314a1.364,1.364,0,0,1,1.329-1.293c.616-.037,1.233-.02,1.849-.021.947,0,.939,0,.9-.935-.01-.208-.051-.309-.284-.3-.97.028-1.943-.051-2.912.057a2.6,2.6,0,0,0-2.389,2,5.571,5.571,0,0,0-.094,2.662,2.646,2.646,0,0,0,2.278,2.24,16.058,16.058,0,0,0,2.589.074c.825.012.808,0,.822-.819,0-.33-.1-.414-.415-.407-.771.02-1.542.025-2.312-.007a1.3,1.3,0,0,1-1.356-1.34c-.027-.3.068-.364.346-.359.955.015,1.912,0,2.868,0,.883,0,.872,0,.863-.874,0-.279-.069-.38-.362-.37C-382.13-195.7-382.7-195.714-383.271-195.714Zm-31.747,4.161c.493,0,.906-.006,1.32,0a.293.293,0,0,0,.33-.247c.116-.37.268-.72.38-1.087.078-.253.187-.381.483-.36.444.031.893,0,1.339.009s.986-.139,1.312.06c.35.213.37.806.551,1.233a.986.986,0,0,1,.069.17.254.254,0,0,0,.1.174.254.254,0,0,0,.2.047h1.412l-.173-.434-2.351-5.511c-.466-1.092-.466-1.084-1.677-1.079a.43.43,0,0,0-.477.313c-.239.616-.508,1.219-.764,1.828Zm72.245,0c.387,0,.785-.011,1.182,0a.339.339,0,0,0,.258-.058.339.339,0,0,0,.138-.225c.117-.381.28-.748.4-1.129a.339.339,0,0,1,.4-.275c.446.017.893,0,1.339,0s1.015-.143,1.356.062c.37.218.383.831.571,1.265a.739.739,0,0,1,.053.123.255.255,0,0,0,.1.175.255.255,0,0,0,.194.05c.457-.007.916,0,1.418,0-.076-.19-.131-.33-.19-.47q-1.174-2.757-2.342-5.513c-.443-1.037-.444-1.024-1.564-1.042a.555.555,0,0,0-.616.39c-.853,2.075-1.726,4.14-2.589,6.21-.059.136-.16.251-.1.438Zm-20.306,0h.921c.863,0,.843,0,.848-.847,0-.312-.1-.386-.4-.377-.771.02-1.541.017-2.312,0a1.226,1.226,0,0,1-1.387-1.184,5.326,5.326,0,0,1,.046-2.067,1.484,1.484,0,0,1,1.611-1.338c.524-.014,1.048,0,1.572,0,.93,0,.925,0,.863-.921-.012-.182-.044-.288-.258-.282a27.391,27.391,0,0,0-3,.067,2.571,2.571,0,0,0-2.314,1.959,5.593,5.593,0,0,0-.1,2.7,2.66,2.66,0,0,0,2.246,2.219,10.494,10.494,0,0,0,1.656.074Zm-53.845,0h.968c.816,0,.8,0,.807-.838,0-.3-.079-.395-.387-.387q-1.2.03-2.4,0a1.182,1.182,0,0,1-1.282-1.08,5.22,5.22,0,0,1,.015-2.112,1.5,1.5,0,0,1,1.662-1.392c.509-.01,1.017,0,1.526,0,.922,0,.914,0,.869-.912-.011-.219-.073-.3-.293-.292-.955.026-1.912-.047-2.865.053a2.6,2.6,0,0,0-2.425,2.01,5.57,5.57,0,0,0-.079,2.7,2.643,2.643,0,0,0,2.227,2.18,10.556,10.556,0,0,0,1.662.073Zm8.108-6.975c.53.788.98,1.582,1.551,2.277a4.709,4.709,0,0,1,1.1,3.568c-.1,1.188-.022,1.187,1.17,1.138.247-.01.308-.092.3-.325-.012-.8,0-1.6-.01-2.4a1.1,1.1,0,0,1,.216-.682q1.133-1.631,2.241-3.279c.06-.09.2-.165.112-.334-.377,0-.762.025-1.142-.007a.67.67,0,0,0-.7.39c-.472.771-.979,1.52-1.5,2.313l-1-1.553c-.759-1.179-.759-1.179-2.175-1.14a1.434,1.434,0,0,0-.175.042Zm87.582-.015h-2.171c-.906,0-.893,0-.878.9,0,.279.106.33.353.323.508-.016,1.017.012,1.524-.011.3-.015.387.075.383.38-.016,1.431-.007,2.864-.007,4.3,0,1.11,0,1.092,1.091,1.11.358.006.464-.084.459-.452-.022-1.6.012-3.205-.022-4.808-.01-.466.133-.583.561-.531a7.32,7.32,0,0,0,.877.006c.856,0,.842,0,.848-.837,0-.3-.069-.4-.383-.39-.878.032-1.756.017-2.633.017Zm-23.476,0h-2.224c-.852,0-.836,0-.842.851,0,.322.112.385.4.37.493-.022.986.016,1.479-.014.339-.021.4.108.4.419-.016,1.417-.007,2.836-.007,4.251,0,1.119,0,1.11,1.122,1.117.323,0,.409-.081.406-.406-.017-1.663,0-3.329-.014-4.991,0-.29.057-.417.37-.391.351.028.708.006,1.063.006.878,0,.863,0,.856-.88,0-.26-.072-.346-.338-.342-.884.02-1.777.011-2.675.011Zm-91.933,0h-2.174c-.906,0-.891,0-.874.9,0,.285.116.324.356.318.508-.015,1.018.016,1.526-.012.316-.017.379.1.37.39-.014,1.449-.006,2.9-.006,4.348,0,1.044,0,1.026,1.05,1.052.38.009.493-.083.486-.475-.023-1.634,0-3.268-.017-4.9,0-.321.08-.438.408-.409s.678.006,1.017.006c.874,0,.863,0,.863-.873,0-.3-.1-.353-.37-.349-.878.017-1.757.007-2.636.007Zm43.389,0h-2.171c-.947,0-.938,0-.888.936.012.222.079.291.3.285.523-.014,1.048.017,1.569-.012.339-.02.4.1.4.417-.016,1.431-.007,2.863-.007,4.3,0,1.071,0,1.057,1.065,1.076.351.006.466-.073.461-.446-.022-1.616.009-3.233-.022-4.849-.009-.43.123-.529.517-.493.321.032.646.006.969.006.816,0,.8,0,.815-.826.007-.34-.112-.4-.419-.4-.861.023-1.722.011-2.585.011Zm-39.661,3.452v2.4c0,.37-.123.875.072,1.064s.7.038,1.064.081.418-.123.417-.448c-.014-1.818-.006-3.637-.006-5.457,0-1.144,0-1.133-1.168-1.131-.3,0-.392.079-.386.387.02,1.031.007,2.063.007,3.1Zm116.962.017v-2.356c0-1.169,0-1.156-1.185-1.149-.317,0-.377.11-.37.4.012,1.815,0,3.63,0,5.444,0,1.208,0,1.195,1.19,1.192.321,0,.37-.113.37-.4-.014-1.044,0-2.091,0-3.136Zm-53.687.023v2.405c0,1.094,0,1.073,1.1,1.1.393.01.44-.138.438-.471-.014-1.8-.006-3.609-.006-5.412,0-1.161,0-1.15-1.144-1.15-.3,0-.4.069-.392.383C-369.627-197.146-369.64-196.095-369.64-195.051Zm-19.888,0v2.4c0,1.11,0,1.1,1.127,1.11.319,0,.413-.074.411-.4-.017-1.83-.009-3.66-.007-5.49,0-1.15,0-1.138-1.153-1.138-.306,0-.388.086-.383.388C-389.517-197.146-389.528-196.1-389.528-195.051Zm38.656,1.491h.783c.894,0,.879,0,.873-.9,0-.307-.123-.346-.38-.34-.69.016-1.381,0-2.071,0-.863,0-.848,0-.848.879,0,.275.062.383.355.37C-351.731-193.577-351.3-193.56-350.872-193.56Zm-48.863,0h.787c.87,0,.863,0,.854-.881,0-.28-.07-.37-.361-.37-.678.021-1.356.007-2.034.007-.931,0-.922,0-.9.927.006.234.06.328.311.318.446-.012.894,0,1.341,0ZM-413.262-199c.757,0,1.429.152,1.839-.554.117-.2.213-.026.312.063.186.168.256.482.566.493.39.014.78,0,1.278,0-.493-.524-.906-.973-1.334-1.405a1.754,1.754,0,0,0-1.356-.006C-412.374-199.972-412.78-199.52-413.262-199Zm31.764,0c-.481-.51-.877-.937-1.281-1.356a1.654,1.654,0,0,0-1.383-.07c-.436.44-.848.9-1.3,1.393,1.069.089,1.076.1,1.785-.514.192-.166.247-.037.356.067.191.178.264.493.616.485s.73,0,1.212,0Zm44.383,0-1.131-1.2c-.261-.277-1.151-.518-1.428-.284A19.671,19.671,0,0,0-341.1-199c.763.021,1.428.145,1.842-.551.123-.2.216-.014.312.072.189.165.256.481.571.493.383,0,.762-.006,1.269-.006Zm21.2-.014c-.412-.521-.773-.978-1.132-1.435a.319.319,0,0,0-.27-.144h-1.412c1.073,1.139,1.849,1.585,2.817,1.579Zm-53.521.02c.427-.039.766.075,1.02-.11.616-.449,1.2-.939,1.891-1.488h-1.479a.319.319,0,0,0-.272.138c-.354.455-.724.91-1.155,1.46Z" transform="translate(1046.019 414.541)" fill="none"/>
    <path id="Path_662" data-name="Path 662" d="M645.28,142.172c-1.38.116-1.38.116-1.38-1.244,0-.431-.015-.863,0-1.293.012-.27-.044-.381-.348-.37-.677.025-1.356.02-2.033,0-.268-.007-.335.083-.33.339.015.755,0,1.51.011,2.265.006.27-.085.329-.341.334-1.14.021-1.14.03-1.14-1.1,0-1.833.01-3.667-.009-5.5,0-.344.08-.443.43-.438,1.053.016,1.054,0,1.054,1.055,0,.477.014.955,0,1.433-.01.265.036.383.344.37.677-.026,1.356-.02,2.033,0,.26.006.342-.069.334-.333-.017-.693.012-1.387-.014-2.08-.012-.334.06-.471.424-.445a3.537,3.537,0,0,0,1.055-.03v.185c-.16.152-.089.349-.089.525Q645.276,139.011,645.28,142.172Z" transform="translate(99.407 80.792)" fill="#272425"/>
    <path id="Path_663" data-name="Path 663" d="M372.584,198.9c0-.076-.011-.153-.011-.229-.014-1.217-.014-1.211,1.216-1.1.2.018.258.088.255.277,0,.351.014.7.021,1.054Z" transform="translate(333.612 26.102)" fill="#282526"/>
    <path id="Path_664" data-name="Path 664" d="M-212.716,198.915v-.229c-.006-1.214-.006-1.208,1.214-1.1.2.017.263.081.259.275-.007.351,0,.7.011,1.055Z" transform="translate(846.742 26.085)" fill="#282526"/>
    <path id="Path_665" data-name="Path 665" d="M12.439,198.894c0-.353.009-.7,0-1.057-.007-.459.37-.293.523-.247.314.091.81-.355.936.247a5.455,5.455,0,0,1,.02,1.054Z" transform="translate(649.344 26.106)" fill="#282526"/>
    <path id="Path_666" data-name="Path 666" d="M684.78,143.487v-6.322c0-.176-.07-.37.089-.525v6.847Z" transform="translate(59.907 79.477)" fill="#2f2c2d"/>
    <path id="Path_667" data-name="Path 667" d="M-387.241-158.578H-388q-4.834,0-9.667.007a.635.635,0,0,1-.64-.38q-3.293-5.805-6.611-11.6l-.271-.472-8.425,14.946-8.4-14.881c-.181.069-.208.237-.281.364q-3.329,5.835-6.657,11.678a.566.566,0,0,1-.552.37c-3.408-.014-6.815-.009-10.222-.009-.062,0-.123-.009-.271-.02l17.943-31.058,8.44,14.595,8.429-14.6Z" transform="translate(1046.005 365.523)" fill="#232021"/>
    <path id="Path_668" data-name="Path 668" d="M107.486-202.632a2.394,2.394,0,0,1-.37-.051c-.187-.055-.219-.165-.052-.287.112-.081.238-.143.356-.213,5.512-3.271,10.961-6.641,16.124-10.45a29.6,29.6,0,0,0,3.329-2.783,6.225,6.225,0,0,0,.949-1.131,1.717,1.717,0,0,0-.142-2.178,5.98,5.98,0,0,0-1.831-1.386c-3.311-1.871-6.556-3.854-9.828-5.794a4.808,4.808,0,0,1-1.41-1.251,2.427,2.427,0,0,1-.079-3.006,5.715,5.715,0,0,1,1.488-1.439,62.479,62.479,0,0,1,7.114-4.294,154.921,154.921,0,0,1,17.151-7.977,12.24,12.24,0,0,1,1.769-.551c.145-.032.346-.123.425.015.095.166-.123.247-.229.348q-6.072,5.828-12.16,11.647c-.334.319-.669.637-1,.963a4.505,4.505,0,0,0-.853,1.144,2.525,2.525,0,0,0,.912,3.54,36.121,36.121,0,0,0,3.528,1.918c2.07,1.057,4.156,2.084,6.127,3.329a17.152,17.152,0,0,1,1.952,1.4,7.274,7.274,0,0,1,1.032,1.057,1.9,1.9,0,0,1,.16,2.354,8.307,8.307,0,0,1-1.916,2.113,31.215,31.215,0,0,1-5.785,3.621,120.4,120.4,0,0,1-18.479,7.311,59.813,59.813,0,0,1-7.274,1.9C108.16-202.707,107.824-202.676,107.486-202.632Z" transform="translate(566.481 414.488)" fill="#f51419"/>
    <path id="Path_669" data-name="Path 669" d="M427.8-158.648h-.433q-4.993,0-9.986.009a.6.6,0,0,1-.607-.359q-3.292-5.8-6.6-11.6c-.075-.133-.154-.264-.232-.4-.187.079-.222.263-.3.4q-3.3,5.773-6.581,11.557a.665.665,0,0,1-.677.4c-3.283-.015-6.567-.009-9.85-.009H392l17.9-30.982Z" transform="translate(316.578 365.523)" fill="#232021"/>
    <path id="Path_670" data-name="Path 670" d="M14.479-173.114q0-7.446-.009-14.893c0-.37.068-.493.467-.486q4.648.028,9.3,0c.344,0,.434.08.434.43q-.015,14.985,0,29.972c0,.339-.073.438-.428.435q-4.671-.023-9.343,0c-.349,0-.428-.086-.427-.429Q14.488-165.6,14.479-173.114Z" transform="translate(647.564 364.526)" fill="#232021"/>
    <path id="Path_671" data-name="Path 671" d="M-406.925,92.163q-16.282,0-32.565.012c-.462,0-.563-.123-.545-.563.036-.831.01-.832.863-.832h64.758c.6,0,.6,0,.6.616,0,.767,0,.767-.779.767Z" transform="translate(1046.037 119.683)" fill="#272425"/>
    <path id="Path_672" data-name="Path 672" d="M280.048,90.692q12.925,0,25.85-.012c.456,0,.561.117.541.554-.038.84-.011.841-.849.841q-25.688,0-51.377.012c-.493,0-.616-.134-.593-.605.039-.788.011-.789.81-.789Z" transform="translate(437.899 119.771)" fill="#272425"/>
    <path id="Path_673" data-name="Path 673" d="M613.952-181.386a4.544,4.544,0,0,1-3.225-1.326,4.544,4.544,0,0,1-1.336-3.221,4.561,4.561,0,0,1,4.537-4.537,4.571,4.571,0,0,1,4.562,4.562A4.548,4.548,0,0,1,613.952-181.386Zm.917-4.3a5.3,5.3,0,0,1,1.5,1.831c.289.436.284.44.581.01a3.662,3.662,0,0,0-.123-4.315,3.679,3.679,0,0,0-4.192-1.186,3.674,3.674,0,0,0-2.36,3.662,3.662,3.662,0,0,0,2.765,3.316,3.505,3.505,0,0,0,3.214-.773c-.358.1-.452-.148-.582-.346-.247-.387-.526-.762-.74-1.168a1.827,1.827,0,0,0-2-1c-.234.026-.323.078-.318.319.012.616-.009,1.233.01,1.849.007.265-.075.356-.338.333-.212-.018-.419.047-.415-.308.016-1.664.009-3.329,0-4.992,0-.176.02-.295.247-.291.97.016,1.943-.014,2.911.043a1.374,1.374,0,0,1,1.331,1.349,1.43,1.43,0,0,1-1.023,1.519C615.207-185.788,615.066-185.749,614.869-185.689Zm-1.122-.576a10.821,10.821,0,0,0,1.11-.076.877.877,0,0,0,.752-.914.867.867,0,0,0-.779-.836,7.99,7.99,0,0,0-1.479-.047c-.725-.009-.725,0-.725.731C612.624-186.284,612.624-186.284,613.747-186.265Z" transform="translate(125.989 366.259)" fill="#2a2728"/>
    <path id="Path_674" data-name="Path 674" d="M-357.476,140.059c0-1.546.015-3-.01-4.462-.006-.388.055-.536.493-.521.995.035.995.01.995,1.023,0,1.849-.007,3.7.007,5.548,0,.342-.074.428-.441.48a1.644,1.644,0,0,1-1.908-1.1c-.673-1.378-1.494-2.684-2.261-4.038-.154.112-.085.26-.084.378.006,1.449.011,2.9.041,4.345.007.327-.083.408-.406.406-1.1-.011-1.1,0-1.1-1.087,0-1.833.007-3.667-.007-5.5,0-.327.069-.4.418-.456a1.839,1.839,0,0,1,2.191,1.254C-358.974,137.59-358.205,138.771-357.476,140.059Z" transform="translate(977.761 80.883)" fill="#262324"/>
    <path id="Path_675" data-name="Path 675" d="M582.892,140.092c0-1.55.021-3.007-.012-4.462-.01-.439.115-.538.53-.524.955.03.957.009.957.969,0,1.864-.007,3.728.006,5.592,0,.334-.058.438-.436.486a1.639,1.639,0,0,1-1.912-1.1c-.6-1.261-1.356-2.446-2.05-3.664a.936.936,0,0,0-.292-.351v1.314c.007,1.14.007,2.281.032,3.42,0,.277-.057.37-.351.37-1.155,0-1.155.017-1.155-1.127,0-1.833.009-3.667-.007-5.5,0-.33.111-.37.412-.413a1.832,1.832,0,0,1,2.2,1.243C581.381,137.611,582.156,138.792,582.892,140.092Z" transform="translate(153.333 80.856)" fill="#262324"/>
    <path id="Path_676" data-name="Path 676" d="M49.025,136.88c0,1.654-.014,3.193.01,4.732,0,.378-.076.493-.471.483-1.038-.027-1.038-.007-1.038-1.063,0-1.833.007-3.667-.006-5.5,0-.334.062-.43.436-.486a1.812,1.812,0,0,1,2.155,1.233,30.907,30.907,0,0,0,2.143,3.679v-.477c-.018-1.34-.031-2.68-.062-4.02-.006-.284.041-.4.37-.406,1.11,0,1.11-.018,1.11,1.086,0,1.833-.006,3.667.006,5.5,0,.314-.051.406-.408.46a1.66,1.66,0,0,1-1.945-1.118C50.654,139.615,49.837,138.311,49.025,136.88Z" transform="translate(618.589 80.904)" fill="#262324"/>
    <path id="Path_677" data-name="Path 677" d="M414.5,136.89c0,1.637-.015,3.16.01,4.685.006.407-.075.55-.514.534-.995-.036-.995-.01-.995-1.015,0-1.864.01-3.729-.009-5.593,0-.356.117-.387.438-.438a1.8,1.8,0,0,1,2.156,1.233,30.991,30.991,0,0,0,2.144,3.683V139.6c-.018-1.371-.027-2.743-.064-4.113-.009-.333.095-.411.413-.408,1.073.007,1.073,0,1.073,1.082,0,1.849-.009,3.7.009,5.548,0,.329-.106.362-.408.412a1.641,1.641,0,0,1-1.948-1.11C416.131,139.623,415.31,138.321,414.5,136.89Z" transform="translate(298.176 80.894)" fill="#262324"/>
    <path id="Path_678" data-name="Path 678" d="M212.56,138.858c0,1.032-.01,2.065,0,3.1,0,.3-.042.43-.391.427-1.075-.01-1.075,0-1.075-1.079,0-.508-.007-1.017,0-1.525,0-.217-.03-.341-.3-.335q-1.063.023-2.125,0c-.254,0-.308.1-.3.328.011.74-.007,1.479.01,2.219.007.287-.055.393-.37.393-1.11,0-1.11.011-1.11-1.1,0-1.833.009-3.667-.009-5.5,0-.344.083-.445.434-.44,1.048.015,1.048,0,1.048,1.06,0,.493.011.986,0,1.479-.009.247.065.322.311.317.693-.014,1.387-.016,2.08,0,.259,0,.345-.067.339-.334-.017-.724,0-1.449-.011-2.172,0-.247.054-.344.329-.35,1.137-.023,1.135-.035,1.135,1.11Q212.56,137.658,212.56,138.858Z" transform="translate(478.866 80.616)" fill="#282526"/>
    <path id="Path_679" data-name="Path 679" d="M-6.212,138.265c.571,0,1.142.016,1.711-.006.293-.012.361.09.362.37,0,.874.016.874-.863.874-.955,0-1.912.009-2.868,0-.279,0-.37.058-.346.359a1.3,1.3,0,0,0,1.356,1.34c.769.032,1.542.028,2.312.007.319-.009.422.075.415.407-.015.821,0,.831-.822.819a15.944,15.944,0,0,1-2.589-.074,2.657,2.657,0,0,1-2.276-2.247,5.571,5.571,0,0,1,.1-2.656,2.6,2.6,0,0,1,2.389-2c.968-.107,1.942-.03,2.912-.057.233-.006.275.095.284.3.042.934.048.932-.9.934-.616,0-1.233-.016-1.849.021a1.364,1.364,0,0,0-1.333,1.292c-.023.247.051.321.295.314C-7.353,138.255-6.783,138.265-6.212,138.265Z" transform="translate(668.959 80.562)" fill="#2b2829"/>
    <path id="Path_680" data-name="Path 680" d="M-237.25,142.424l2.049-4.882c.256-.609.525-1.213.764-1.828a.425.425,0,0,1,.477-.313c1.211,0,1.211-.014,1.677,1.079l2.351,5.511c.053.123.1.247.173.434h-1.412a.254.254,0,0,1-.2-.047.254.254,0,0,1-.1-.174.987.987,0,0,0-.069-.17c-.178-.422-.2-1.015-.551-1.233-.328-.2-.863-.057-1.312-.06s-.9.022-1.339-.009c-.3-.021-.406.107-.483.36-.112.37-.264.721-.38,1.087a.293.293,0,0,1-.33.247C-236.344,142.417-236.758,142.424-237.25,142.424Zm2.637-2.9h1.831c.165,0,.281-.014.2-.226-.316-.788-.629-1.577-.986-2.466Z" transform="translate(868.251 80.564)" fill="#262324"/>
    <path id="Path_681" data-name="Path 681" d="M348.627,142.413c-.06-.187.041-.3.091-.425.863-2.07,1.742-4.135,2.589-6.21a.546.546,0,0,1,.616-.39c1.122.017,1.123,0,1.564,1.042q1.175,2.755,2.342,5.513c.059.139.113.28.19.47H354.6a.255.255,0,0,1-.292-.224.739.739,0,0,0-.053-.123c-.186-.434-.206-1.048-.571-1.265-.343-.2-.9-.059-1.356-.062s-.894.011-1.339,0a.338.338,0,0,0-.4.275c-.123.381-.282.748-.4,1.129a.339.339,0,0,1-.4.282C349.412,142.4,349.014,142.413,348.627,142.413Zm4.655-2.921-1.066-2.673-1.031,2.679Z" transform="translate(354.62 80.575)" fill="#262324"/>
    <path id="Path_682" data-name="Path 682" d="M155.352,142.391a10.052,10.052,0,0,1-1.663-.078,2.659,2.659,0,0,1-2.246-2.219,5.593,5.593,0,0,1,.1-2.7,2.571,2.571,0,0,1,2.314-1.959,27.391,27.391,0,0,1,3-.067c.213,0,.247.1.258.282.064.921.069.921-.863.921-.524,0-1.048-.011-1.572,0a1.485,1.485,0,0,0-1.611,1.338,5.326,5.326,0,0,0-.046,2.067,1.224,1.224,0,0,0,1.387,1.184c.771.017,1.541.021,2.312,0,.3-.007.4.065.4.377,0,.847.011.847-.848.847Z" transform="translate(527.583 80.598)" fill="#282526"/>
    <path id="Path_683" data-name="Path 683" d="M-281.288,142.446a9.928,9.928,0,0,1-1.663-.079,2.641,2.641,0,0,1-2.227-2.18,5.57,5.57,0,0,1,.079-2.7,2.6,2.6,0,0,1,2.425-2.01c.953-.1,1.911-.026,2.865-.053.221,0,.284.072.293.292.043.912.052.912-.869.912-.509,0-1.017-.007-1.526,0a1.505,1.505,0,0,0-1.662,1.392,5.22,5.22,0,0,0-.015,2.112,1.176,1.176,0,0,0,1.282,1.08q1.2.036,2.4,0c.308-.007.39.085.387.387,0,.838.007.838-.808.838Z" transform="translate(910.383 80.543)" fill="#282526"/>
    <path id="Path_684" data-name="Path 684" d="M-186.94,135.414a1.433,1.433,0,0,1,.175-.042c1.415-.038,1.415-.038,2.175,1.14l1,1.553c.515-.793,1.022-1.542,1.5-2.313a.669.669,0,0,1,.7-.39c.38.032.764.007,1.142.007.086.169-.051.247-.112.334q-1.11,1.645-2.241,3.279a1.1,1.1,0,0,0-.216.682c.014.8,0,1.6.01,2.4,0,.233-.055.314-.3.325-1.192.049-1.272.051-1.17-1.138a4.67,4.67,0,0,0-1.1-3.568C-185.961,137-186.41,136.2-186.94,135.414Z" transform="translate(824.143 80.599)" fill="#282526"/>
    <path id="Path_685" data-name="Path 685" d="M501.744,135.624c.878,0,1.756.015,2.632-.007.313-.009.385.094.383.39,0,.836.007.837-.848.837a7.32,7.32,0,0,1-.877-.006c-.428-.052-.571.064-.561.531.035,1.6,0,3.205.022,4.808,0,.37-.1.459-.459.452-1.09-.018-1.091,0-1.091-1.11,0-1.431-.009-2.864.007-4.3,0-.3-.084-.395-.383-.38-.507.025-1.016,0-1.524.011-.247.007-.348-.044-.353-.323-.015-.9-.028-.9.878-.9Z" transform="translate(223.041 80.375)" fill="#282526"/>
    <path id="Path_686" data-name="Path 686" d="M311.266,135.69c.894,0,1.786.009,2.68,0,.266,0,.335.081.338.342.011.88.022.88-.856.88-.354,0-.71.022-1.063-.006-.318-.026-.377.1-.37.391.012,1.663,0,3.329.014,4.991,0,.324-.083.408-.406.406-1.122-.011-1.122,0-1.122-1.117,0-1.417-.009-2.836.007-4.251,0-.311-.06-.439-.4-.419-.493.03-.986-.009-1.479.014-.288.012-.4-.051-.4-.37.006-.851-.01-.851.842-.851Z" transform="translate(390.038 80.31)" fill="#252223"/>
    <path id="Path_687" data-name="Path 687" d="M-434.355,135.69c.879,0,1.758.01,2.636,0,.268,0,.37.047.37.349,0,.873.014.873-.863.873-.339,0-.681.022-1.017-.006s-.412.089-.408.409c.016,1.635-.006,3.268.017,4.9,0,.393-.106.485-.486.475-1.05-.025-1.05-.007-1.05-1.052,0-1.45-.007-2.9.006-4.348,0-.292-.06-.407-.37-.39-.508.027-1.017,0-1.526.012-.247.007-.351-.033-.356-.318-.017-.9-.031-.9.874-.9Z" transform="translate(1043.731 80.31)" fill="#242122"/>
    <path id="Path_688" data-name="Path 688" d="M-82.568,135.634c.863,0,1.726.012,2.589-.007.308-.007.427.057.419.4-.017.826,0,.826-.815.826-.323,0-.648.026-.969-.006-.388-.038-.525.06-.517.493.031,1.616,0,3.233.022,4.849,0,.37-.11.454-.461.446-1.065-.02-1.065,0-1.065-1.076,0-1.431-.009-2.864.007-4.3,0-.312-.059-.435-.4-.417-.521.03-1.047,0-1.569.012-.219,0-.286-.063-.3-.285-.052-.936-.059-.936.888-.936Z" transform="translate(735.332 80.367)" fill="#242122"/>
    <path id="Path_689" data-name="Path 689" d="M-382.663,138.865c0-1.033.012-2.065-.007-3.1,0-.308.085-.386.386-.387,1.168,0,1.168-.014,1.168,1.131,0,1.818-.007,3.638.006,5.457,0,.319-.037.493-.417.448s-.874.108-1.064-.081-.069-.7-.072-1.064C-382.667,140.468-382.663,139.667-382.663,138.865Z" transform="translate(995.768 80.582)" fill="#2a2728"/>
    <path id="Path_690" data-name="Path 690" d="M555.21,138.882c0,1.045-.009,2.1,0,3.138,0,.284-.049.4-.37.4-1.19,0-1.19.016-1.19-1.192V135.78c0-.29.059-.4.37-.4,1.185-.007,1.185-.02,1.185,1.149Z" transform="translate(174.857 80.582)" fill="#2a2728"/>
    <path id="Path_691" data-name="Path 691" d="M130.777,138.9c0-1.049.012-2.1-.007-3.146,0-.314.1-.383.392-.383,1.144,0,1.144-.011,1.144,1.15,0,1.8-.007,3.609.006,5.412,0,.333-.043.481-.438.471-1.1-.026-1.1,0-1.1-1.1Q130.777,140.107,130.777,138.9Z" transform="translate(545.602 80.591)" fill="#242122"/>
    <path id="Path_692" data-name="Path 692" d="M-30.543,138.926c0-1.045.011-2.1-.007-3.138,0-.3.078-.388.383-.388,1.153,0,1.153-.012,1.153,1.138,0,1.83-.009,3.66.007,5.49,0,.329-.09.407-.411.4-1.127-.01-1.127,0-1.127-1.11Q-30.543,140.125-30.543,138.926Z" transform="translate(687.034 80.564)" fill="#242122"/>
    <path id="Path_693" data-name="Path 693" d="M271.373,167.249c-.429,0-.863-.018-1.288.006-.295.017-.355-.091-.355-.37,0-.879-.012-.879.848-.879.69,0,1.381.011,2.071,0,.261-.006.377.033.38.34,0,.9.022.9-.873.9Z" transform="translate(423.774 53.732)" fill="#2f2c2d"/>
    <path id="Path_694" data-name="Path 694" d="M-125.07,167.179c-.448,0-.9-.014-1.341,0-.247.01-.3-.083-.311-.318-.026-.927-.035-.927.9-.927.678,0,1.356.015,2.034-.007.291-.009.36.085.361.37,0,.881.015.881-.854.881Z" transform="translate(771.356 53.802)" fill="#2f2c2d"/>
    <path id="Path_695" data-name="Path 695" d="M-223,121.057c.482-.519.888-.971,1.312-1.405a1.754,1.754,0,0,1,1.356.006c.428.433.838.881,1.334,1.405-.493,0-.889.011-1.278,0-.309-.011-.38-.325-.566-.493-.1-.089-.2-.263-.312-.063C-221.571,121.2-222.243,121.057-223,121.057Z" transform="translate(855.757 94.488)" fill="#2f2c2d"/>
    <path id="Path_696" data-name="Path 696" d="M6.447,120.977c-.482,0-.847-.012-1.209,0s-.427-.307-.616-.485c-.112-.1-.164-.233-.356-.067-.709.616-.718.6-1.785.514.457-.493.863-.954,1.306-1.392a1.654,1.654,0,0,1,1.383.07C5.571,120.04,5.967,120.468,6.447,120.977Z" transform="translate(658.076 94.568)" fill="#2f2c2d"/>
    <path id="Path_697" data-name="Path 697" d="M366.318,120.7c-.505,0-.885.007-1.264,0-.314-.007-.382-.323-.571-.493-.1-.085-.192-.274-.312-.072-.414.7-1.079.572-1.842.551.509-.534.932-1.049,1.431-1.479.276-.234,1.166,0,1.428.284Z" transform="translate(342.59 94.844)" fill="#2f2c2d"/>
    <path id="Path_698" data-name="Path 698" d="M546.622,120.668c-.967,0-1.744-.441-2.812-1.578h1.412a.319.319,0,0,1,.27.144C545.848,119.7,546.209,120.146,546.622,120.668Z" transform="translate(183.484 94.864)" fill="#2b2829"/>
    <path id="Path_699" data-name="Path 699" d="M132.5,120.678c.435-.551.8-1,1.153-1.461a.319.319,0,0,1,.272-.138H135.4c-.692.549-1.276,1.039-1.891,1.488C133.266,120.753,132.932,120.639,132.5,120.678Z" transform="translate(544.085 94.873)" fill="#2b2829"/>
    <path id="Path_701" data-name="Path 701" d="M636.734-169.757c-1.124-.02-1.124-.02-1.124-1.142,0-.734,0-.74.725-.731a7.919,7.919,0,0,1,1.479.047.853.853,0,0,1,.779.836.877.877,0,0,1-.752.914A10.825,10.825,0,0,1,636.734-169.757Z" transform="translate(103.001 349.752)" fill="none"/>
    <path id="Path_702" data-name="Path 702" d="M-215.86,149.663l1.042-2.693c.355.891.668,1.68.986,2.466.085.212-.031.227-.2.226C-214.615,149.66-215.2,149.663-215.86,149.663Z" transform="translate(849.498 70.421)" fill="none"/>
  </g>
</svg>