<svg width="20" height="20" viewBox="0 0 20 20" fill="none" xmlns="http://www.w3.org/2000/svg">
<path d="M7.40039 7.31596C7.61087 6.71728 8.02659 6.2125 8.57382 5.89116C9.12105 5.56982 9.76441 5.4527 10.3898 5.56056C11.0151 5.66842 11.5821 5.9943 11.9901 6.48039C12.398 6.96648 12.6206 7.58136 12.6184 8.21596C12.6134 10.006 10.0004 10.901 10.0004 10.901V11.801" stroke="#6E737A" stroke-width="1.8" stroke-linecap="round" stroke-linejoin="round"/>
<path d="M10 19C11.78 19 13.5201 18.4722 15.0001 17.4832C16.4802 16.4943 17.6337 15.0887 18.3149 13.4442C18.9961 11.7996 19.1743 9.99002 18.8271 8.24419C18.4798 6.49836 17.6226 4.89472 16.364 3.63604C15.1053 2.37737 13.5016 1.5202 11.7558 1.17294C10.01 0.82567 8.20038 1.0039 6.55585 1.68509C4.91131 2.36628 3.50571 3.51983 2.51677 4.99987C1.52784 6.47991 1 8.21997 1 10C1 12.387 1.94821 14.6761 3.63604 16.364C5.32387 18.0518 7.61305 19 10 19Z" stroke="#6E737A" stroke-width="2" stroke-miterlimit="10" stroke-linecap="square"/>
<path d="M10 16C10.1978 16 10.3911 15.9414 10.5556 15.8315C10.72 15.7216 10.8482 15.5654 10.9239 15.3827C10.9996 15.2 11.0194 14.9989 10.9808 14.8049C10.9422 14.6109 10.847 14.4327 10.7071 14.2929C10.5673 14.153 10.3891 14.0578 10.1951 14.0192C10.0011 13.9806 9.80004 14.0004 9.61732 14.0761C9.43459 14.1518 9.27841 14.28 9.16853 14.4444C9.05865 14.6089 9 14.8022 9 15C9 15.2652 9.10536 15.5196 9.29289 15.7071C9.48043 15.8946 9.73478 16 10 16Z" fill="#6E737A"/>
</svg>
