<svg width="14" height="16" viewBox="0 0 14 16" fill="none" xmlns="http://www.w3.org/2000/svg">
<path d="M4 9L9.206 12.085" stroke="#7A8188" stroke-width="2" stroke-miterlimit="10"/>
<path d="M4 6.9992L9.206 3.9082" stroke="#7A8188" stroke-width="2" stroke-miterlimit="10"/>
<path d="M3 10C4.10457 10 5 9.10457 5 8C5 6.89543 4.10457 6 3 6C1.89543 6 1 6.89543 1 8C1 9.10457 1.89543 10 3 10Z" stroke="#7A8188" stroke-width="2" stroke-miterlimit="10" stroke-linecap="square"/>
<path d="M11 15C12.1046 15 13 14.1046 13 13C13 11.8954 12.1046 11 11 11C9.89543 11 9 11.8954 9 13C9 14.1046 9.89543 15 11 15Z" stroke="#7A8188" stroke-width="2" stroke-miterlimit="10" stroke-linecap="square"/>
<path d="M11 5C12.1046 5 13 4.10457 13 3C13 1.89543 12.1046 1 11 1C9.89543 1 9 1.89543 9 3C9 4.10457 9.89543 5 11 5Z" stroke="#7A8188" stroke-width="2" stroke-miterlimit="10" stroke-linecap="square"/>
</svg>
