<svg width="16" height="16" viewBox="0 0 16 16" fill="none" xmlns="http://www.w3.org/2000/svg">
<path d="M14.5 10H10.5C10.2239 10 10 10.2239 10 10.5V14.5C10 14.7761 10.2239 15 10.5 15H14.5C14.7761 15 15 14.7761 15 14.5V10.5C15 10.2239 14.7761 10 14.5 10Z" stroke="#7A8188" stroke-width="2" stroke-miterlimit="10"/>
<path d="M14.5 1H10.5C10.2239 1 10 1.22386 10 1.5V5.5C10 5.77614 10.2239 6 10.5 6H14.5C14.7761 6 15 5.77614 15 5.5V1.5C15 1.22386 14.7761 1 14.5 1Z" stroke="#7A8188" stroke-width="2" stroke-miterlimit="10"/>
<path d="M5.5 10H1.5C1.22386 10 1 10.2239 1 10.5V14.5C1 14.7761 1.22386 15 1.5 15H5.5C5.77614 15 6 14.7761 6 14.5V10.5C6 10.2239 5.77614 10 5.5 10Z" stroke="#7A8188" stroke-width="2" stroke-miterlimit="10"/>
<path d="M5.5 1H1.5C1.22386 1 1 1.22386 1 1.5V5.5C1 5.77614 1.22386 6 1.5 6H5.5C5.77614 6 6 5.77614 6 5.5V1.5C6 1.22386 5.77614 1 5.5 1Z" stroke="#7A8188" stroke-width="2" stroke-miterlimit="10"/>
</svg>
