<svg width="32" height="32" viewBox="0 0 32 32" fill="none" xmlns="http://www.w3.org/2000/svg">
<path d="M27 0H5C2.23858 0 0 2.23858 0 5V27C0 29.7614 2.23858 32 5 32H27C29.7614 32 32 29.7614 32 27V5C32 2.23858 29.7614 0 27 0Z" fill="#EBEBEB"/>
<path d="M8.29455 12.6944C8.70242 12.6883 9.10742 12.7636 9.4858 12.916C9.86418 13.0684 10.2083 13.2949 10.4981 13.582C10.7878 13.8692 11.0174 14.2112 11.1732 14.5882C11.329 14.9652 11.408 15.3695 11.4056 15.7774C11.4109 16.3943 11.2329 16.9989 10.894 17.5144C10.5551 18.0299 10.0707 18.4331 9.50222 18.6728C8.93377 18.9125 8.30691 18.9779 7.70123 18.8607C7.09554 18.7435 6.53835 18.4489 6.10037 18.0145C5.66238 17.58 5.36336 17.0252 5.24127 16.4205C5.11917 15.8158 5.1795 15.1884 5.41461 14.618C5.64971 14.0477 6.049 13.56 6.56176 13.217C7.07452 12.874 7.67763 12.691 8.29455 12.6914V12.6944ZM8.29455 17.4474C8.733 17.4404 9.15242 17.2672 9.46801 16.9627C9.7836 16.6583 9.97181 16.2453 9.99456 15.8074C10.0023 15.5807 9.96484 15.3547 9.8843 15.1426C9.80376 14.9306 9.68175 14.7366 9.52544 14.5722C9.36914 14.4078 9.18166 14.2762 8.97393 14.185C8.7662 14.0938 8.5424 14.045 8.31558 14.0413C8.08875 14.0375 7.86344 14.079 7.65283 14.1633C7.44222 14.2476 7.25053 14.373 7.08892 14.5322C6.92731 14.6914 6.79902 14.8813 6.71157 15.0906C6.62412 15.2999 6.57924 15.5245 6.57955 15.7514C6.58986 16.2016 6.77434 16.6303 7.09417 16.9473C7.414 17.2644 7.84426 17.4451 8.29455 17.4514V17.4474Z" fill="#212E40"/>
<path d="M26.9147 16.6553C27.0957 16.2223 27.2267 15.9263 27.3447 15.6233C27.6307 14.8923 27.9447 14.1703 28.1827 13.4233C28.3527 12.8923 28.6277 12.6484 29.1917 12.7364C29.4609 12.7566 29.7312 12.7586 30.0007 12.7423C29.7007 13.4963 29.4407 14.1753 29.1687 14.8513C28.6937 16.0303 28.1967 17.2013 27.7447 18.3903C27.5937 18.7903 27.3307 18.8253 26.9957 18.7903C26.6607 18.7553 26.2697 18.9333 26.0797 18.4433C25.3857 16.6433 24.6697 14.8543 23.9637 13.0603C23.9321 12.9548 23.9064 12.8477 23.8867 12.7393C24.1929 12.7541 24.4997 12.752 24.8057 12.7333C25.2397 12.6833 25.4437 12.8523 25.5847 13.2693C25.9177 14.2523 26.3087 15.2163 26.6797 16.1863C26.7207 16.2943 26.7837 16.3943 26.9147 16.6553Z" fill="#00A55C"/>
<path d="M5.11437 17.2321L5.80038 18.2501C5.44877 18.5593 5.01628 18.7618 4.55364 18.8339C4.091 18.906 3.61739 18.8446 3.18838 18.657C2.80194 18.4969 2.47846 18.2148 2.26724 17.8537C2.05601 17.4926 1.9686 17.0724 2.01837 16.657C2.01837 15.023 2.04339 13.388 2.00439 11.757C1.99239 11.235 2.20438 11.0851 2.65438 11.0681C2.99138 11.0561 3.32737 11.026 3.73837 10.998V12.7921L4.59637 12.8621V14.0701L3.77038 14.1301C3.77038 15.0731 3.72037 16.022 3.79037 16.962C3.82437 17.487 4.38637 17.5821 5.11437 17.2321Z" fill="#212E40"/>
<path d="M23.3772 13.7659C23.1903 13.8938 23.0119 14.0338 22.8432 14.1849C22.7301 14.3201 22.5693 14.4066 22.3941 14.4265C22.219 14.4464 22.0429 14.3982 21.9023 14.2919C21.7123 14.1717 21.4977 14.0958 21.2744 14.0697C21.0511 14.0437 20.8248 14.0681 20.6123 14.1413C20.3997 14.2144 20.2063 14.3344 20.0464 14.4924C19.8864 14.6504 19.764 14.8423 19.6882 15.0539C19.4903 15.4587 19.459 15.925 19.6011 16.3526C19.7432 16.7803 20.0474 17.1351 20.4482 17.3409C20.7619 17.4786 21.1083 17.5234 21.4467 17.4703C21.785 17.4171 22.101 17.2681 22.3572 17.0409L23.3052 17.8029C23.0457 18.0967 22.7303 18.3361 22.3775 18.5071C22.0247 18.678 21.6414 18.7772 21.2499 18.7989C20.8585 18.8205 20.4666 18.7643 20.0971 18.6333C19.7275 18.5023 19.3877 18.2993 19.0972 18.0359C18.4931 17.474 18.136 16.6957 18.1039 15.8712C18.0719 15.0467 18.3675 14.2431 18.9262 13.6359C19.2194 13.3383 19.5707 13.1042 19.9583 12.9483C20.3458 12.7924 20.7614 12.718 21.179 12.7297C21.5966 12.7414 22.0072 12.839 22.3854 13.0165C22.7637 13.1939 23.1013 13.4473 23.3772 13.7609V13.7659Z" fill="#00A45C"/>
<path d="M12.5533 23.6238C12.1533 23.0768 11.7823 22.5918 11.4363 22.0908C11.3667 21.9677 11.3409 21.8245 11.3633 21.6848C11.6243 19.8398 11.9463 18.0018 12.1323 16.1498C12.073 15.5383 11.9135 14.9407 11.6603 14.3809L12.5533 13.2988L13.6133 14.5328C12.4133 15.6418 13.1533 16.9698 13.2523 18.2328C13.3333 19.2648 13.5323 20.2888 13.7143 21.3098C13.7663 21.5347 13.761 21.7691 13.6988 21.9913C13.6366 22.2136 13.5195 22.4167 13.3583 22.5818C13.0863 22.8768 12.8653 23.2178 12.5533 23.6238Z" fill="#212E40"/>
<path d="M12.7959 13.0637C13.256 12.8055 13.7717 12.6622 14.2991 12.6461C14.8264 12.6299 15.3499 12.7414 15.825 12.9709C16.3001 13.2004 16.7127 13.5413 17.0278 13.9645C17.3429 14.3877 17.5512 14.8807 17.6349 15.4017C17.7131 15.8969 17.6669 16.4038 17.5005 16.8767C17.3341 17.3497 17.0528 17.7738 16.6817 18.111C16.3107 18.4482 15.8617 18.6879 15.375 18.8084C14.8884 18.929 14.3794 18.9267 13.8939 18.8016C13.8251 18.7692 13.7646 18.7217 13.7166 18.6627C13.6687 18.6036 13.6346 18.5346 13.6169 18.4606C13.5279 18.0096 13.4829 17.5497 13.4169 17.0607C13.7319 17.3275 14.1341 17.4691 14.5468 17.4586C14.9594 17.4481 15.3538 17.2862 15.6549 17.0037C15.928 16.7324 16.1023 16.3774 16.1498 15.9954C16.1973 15.6134 16.1153 15.2265 15.9169 14.8967C15.7924 14.6215 15.5775 14.397 15.308 14.2606C15.0384 14.1242 14.7304 14.084 14.4349 14.1467C13.7779 14.3357 13.5149 14.0117 13.2039 13.6137C13.0659 13.4357 12.9399 13.2537 12.7959 13.0637Z" fill="#212E40"/>
</svg>
