<svg width="32" height="32" viewBox="0 0 32 32" fill="none" xmlns="http://www.w3.org/2000/svg">
<path opacity="0.6" d="M16 32C24.8366 32 32 24.8366 32 16C32 7.16344 24.8366 0 16 0C7.16344 0 0 7.16344 0 16C0 24.8366 7.16344 32 16 32Z" fill="#BFBFBF"/>
<path opacity="0.3" d="M5.00488 27.625C5.80488 23.315 10.6199 20.001 16.4439 20.001C21.9379 20.001 26.5369 22.951 27.7099 26.901C26.2711 28.4467 24.5405 29.6924 22.6179 30.5661C20.6954 31.4398 18.6189 31.9243 16.5082 31.9916C14.3975 32.0589 12.2943 31.7077 10.32 30.9583C8.34568 30.2088 6.53925 29.0759 5.00488 27.625ZM10.2209 12.446C10.2209 11.3032 10.5598 10.1861 11.1947 9.23589C11.8295 8.2857 12.7319 7.54512 13.7877 7.1078C14.8435 6.67047 16.0053 6.55605 17.1261 6.77899C18.2469 7.00194 19.2765 7.55224 20.0845 8.36031C20.8926 9.16838 21.4429 10.1979 21.6659 11.3187C21.8888 12.4396 21.7744 13.6013 21.3371 14.6571C20.8997 15.7129 20.1592 16.6153 19.209 17.2502C18.2588 17.8851 17.1417 18.224 15.9989 18.224C14.4665 18.224 12.9968 17.6152 11.9132 16.5316C10.8296 15.448 10.2209 13.9784 10.2209 12.446Z" fill="white"/>
</svg>
