<svg width="14" height="14" viewBox="0 0 14 14" fill="none" xmlns="http://www.w3.org/2000/svg">
<path d="M6.99987 13.5C8.53853 13.5 9.78587 10.5899 9.78587 7C9.78587 3.41015 8.53853 0.5 6.99987 0.5C5.4612 0.5 4.21387 3.41015 4.21387 7C4.21387 10.5899 5.4612 13.5 6.99987 13.5Z" stroke="#2680EB" stroke-linecap="round" stroke-linejoin="round"/>
<path d="M0.5 7.5H13.5" stroke="#2680EB" stroke-linecap="round" stroke-linejoin="round"/>
<path d="M13.481 7.5C13.355 9.13255 12.6176 10.6574 11.416 11.7698C10.2145 12.8822 8.6374 13.5001 7 13.5C5.27609 13.5 3.6228 12.8152 2.40381 11.5962C1.18482 10.3772 0.5 8.72391 0.5 7C0.5 5.2761 1.18482 3.6228 2.40381 2.40381C3.6228 1.18482 5.27609 0.500003 7 0.500003C7.75563 0.499245 8.50558 0.630554 9.216 0.888004C9.41 0.958004 9.6 1.038 9.786 1.126" stroke="#2680EB" stroke-linecap="round" stroke-linejoin="round"/>
</svg>
